<?xml version="1.0" encoding="UTF-8" standalone="no"?><svg xmlns="http://www.w3.org/2000/svg" xmlns:xlink="http://www.w3.org/1999/xlink" clip-rule="evenodd" stroke-miterlimit="10" viewBox="0 0 320 38"><desc>SVG generated by Keynote</desc><defs></defs><g transform="matrix(1.00, 0.00, -0.00, -1.00, 0.0, 38.0)"><text xml:space="preserve" font-family="Helvetica-Light,Helvetica" font-size="29.2" fill="#000000" transform="matrix(1.00, 0.00, -0.00, -1.00, 0.6, 11.2)">•</text><text xml:space="preserve" font-family="Helvetica-Light,Helvetica" font-size="39.0" fill="#000000" transform="matrix(1.00, 0.00, -0.00, -1.00, 38.5, 7.9)">V</text><text xml:space="preserve" font-family="Helvetica-Light,Helvetica" font-size="26.0" fill="#000000" transform="matrix(1.00, 0.00, -0.00, -1.00, 62.3, 4.9)">B</text><text xml:space="preserve" font-family="Helvetica-Light,Helvetica" font-size="26.0" fill="#000000" transform="matrix(1.00, 0.00, -0.00, -1.00, 79.6, 4.9)">X</text><text xml:space="preserve" font-family="Helvetica-Light,Helvetica" font-size="26.0" fill="#000000" transform="matrix(1.00, 0.00, -0.00, -1.00, 95.5, 4.9)">I</text><text xml:space="preserve" font-family="Helvetica-Light,Helvetica" font-size="39.0" fill="#000000" transform="matrix(1.00, 0.00, -0.00, -1.00, 102.8, 7.9)"> </text><text xml:space="preserve" font-family="Helvetica-Light,Helvetica" font-size="39.0" fill="#000000" transform="matrix(1.00, 0.00, -0.00, -1.00, 113.6, 7.9)">=</text><text xml:space="preserve" font-family="Helvetica-Light,Helvetica" font-size="39.0" fill="#000000" transform="matrix(1.00, 0.00, -0.00, -1.00, 139.3, 7.9)"> </text><text xml:space="preserve" font-family="Helvetica-Light,Helvetica" font-size="39.0" fill="#000000" transform="matrix(1.00, 0.00, -0.00, -1.00, 150.2, 7.9)">1</text><text xml:space="preserve" font-family="Helvetica-Light,Helvetica" font-size="39.0" fill="#000000" transform="matrix(1.00, 0.00, -0.00, -1.00, 171.9, 7.9)">7</text><text xml:space="preserve" font-family="Helvetica-Light,Helvetica" font-size="39.0" fill="#000000" transform="matrix(1.00, 0.00, -0.00, -1.00, 193.6, 7.9)">,</text><text xml:space="preserve" font-family="Helvetica-Light,Helvetica" font-size="39.0" fill="#000000" transform="matrix(1.00, 0.00, -0.00, -1.00, 204.4, 7.9)">1</text><text xml:space="preserve" font-family="Helvetica-Light,Helvetica" font-size="39.0" fill="#000000" transform="matrix(1.00, 0.00, -0.00, -1.00, 226.1, 7.9)"> </text><text xml:space="preserve" font-family="Helvetica-Light,Helvetica" font-size="39.0" fill="#000000" transform="matrix(1.00, 0.00, -0.00, -1.00, 236.9, 7.9)">m</text><text xml:space="preserve" font-family="Helvetica-Light,Helvetica" font-size="39.0" fill="#000000" transform="matrix(1.00, 0.00, -0.00, -1.00, 269.4, 7.9)">.</text><text xml:space="preserve" font-family="Helvetica-Light,Helvetica" font-size="39.0" fill="#000000" transform="matrix(1.00, 0.00, -0.00, -1.00, 280.2, 7.9)">s</text><text xml:space="preserve" font-family="Helvetica-Light,Helvetica" font-size="26.0" fill="#000000" transform="matrix(1.00, 0.00, -0.00, -1.00, 299.7, 17.9)">-</text><text xml:space="preserve" font-family="Helvetica-Light,Helvetica" font-size="26.0" fill="#000000" transform="matrix(1.00, 0.00, -0.00, -1.00, 308.4, 17.9)">1</text></g></svg>