<?xml version="1.0" encoding="UTF-8" standalone="no"?><svg xmlns="http://www.w3.org/2000/svg" xmlns:xlink="http://www.w3.org/1999/xlink" clip-rule="evenodd" stroke-miterlimit="10" viewBox="0 0 140 31"><desc>SVG generated by Keynote</desc><defs></defs><g transform="matrix(1.00, 0.00, -0.00, -1.00, 0.0, 31.0)"><text xml:space="preserve" font-family="Avenir-Light,Avenir" font-size="28.0" fill="#000000" transform="matrix(1.00, 0.00, -0.00, -1.00, 0.3, 8.2)">D</text><text xml:space="preserve" font-family="Avenir-Light,Avenir" font-size="28.0" fill="#000000" transform="matrix(1.00, 0.00, -0.00, -1.00, 21.1, 8.2)">é</text><text xml:space="preserve" font-family="Avenir-Light,Avenir" font-size="28.0" fill="#000000" transform="matrix(1.00, 0.00, -0.00, -1.00, 36.7, 8.2)">p</text><text xml:space="preserve" font-family="Avenir-Light,Avenir" font-size="28.0" fill="#000000" transform="matrix(1.00, 0.00, -0.00, -1.00, 53.8, 8.2)">r</text><text xml:space="preserve" font-family="Avenir-Light,Avenir" font-size="28.0" fill="#000000" transform="matrix(1.00, 0.00, -0.00, -1.00, 62.6, 8.2)">e</text><text xml:space="preserve" font-family="Avenir-Light,Avenir" font-size="28.0" fill="#000000" transform="matrix(1.00, 0.00, -0.00, -1.00, 78.2, 8.2)">s</text><text xml:space="preserve" font-family="Avenir-Light,Avenir" font-size="28.0" fill="#000000" transform="matrix(1.00, 0.00, -0.00, -1.00, 90.1, 8.2)">s</text><text xml:space="preserve" font-family="Avenir-Light,Avenir" font-size="28.0" fill="#000000" transform="matrix(1.00, 0.00, -0.00, -1.00, 102.0, 8.2)">i</text><text xml:space="preserve" font-family="Avenir-Light,Avenir" font-size="28.0" fill="#000000" transform="matrix(1.00, 0.00, -0.00, -1.00, 108.7, 8.2)">o</text><text xml:space="preserve" font-family="Avenir-Light,Avenir" font-size="28.0" fill="#000000" transform="matrix(1.00, 0.00, -0.00, -1.00, 125.4, 8.2)">n</text></g></svg>