<?xml version="1.0" encoding="UTF-8" standalone="no"?><svg xmlns="http://www.w3.org/2000/svg" xmlns:xlink="http://www.w3.org/1999/xlink" clip-rule="evenodd" stroke-miterlimit="10" viewBox="0 0 145 31"><desc>SVG generated by Keynote</desc><defs></defs><g transform="matrix(1.00, 0.00, -0.00, -1.00, 0.0, 31.0)"><text xml:space="preserve" font-family="Avenir-Light,Avenir" font-size="28.0" fill="#000000" transform="matrix(1.00, 0.00, -0.00, -1.00, 1.3, 8.2)">S</text><text xml:space="preserve" font-family="Avenir-Light,Avenir" font-size="28.0" fill="#000000" transform="matrix(1.00, 0.00, -0.00, -1.00, 16.8, 8.2)">u</text><text xml:space="preserve" font-family="Avenir-Light,Avenir" font-size="28.0" fill="#000000" transform="matrix(1.00, 0.00, -0.00, -1.00, 32.4, 8.2)">r</text><text xml:space="preserve" font-family="Avenir-Light,Avenir" font-size="28.0" fill="#000000" transform="matrix(1.00, 0.00, -0.00, -1.00, 41.7, 8.2)">p</text><text xml:space="preserve" font-family="Avenir-Light,Avenir" font-size="28.0" fill="#000000" transform="matrix(1.00, 0.00, -0.00, -1.00, 58.8, 8.2)">r</text><text xml:space="preserve" font-family="Avenir-Light,Avenir" font-size="28.0" fill="#000000" transform="matrix(1.00, 0.00, -0.00, -1.00, 67.7, 8.2)">e</text><text xml:space="preserve" font-family="Avenir-Light,Avenir" font-size="28.0" fill="#000000" transform="matrix(1.00, 0.00, -0.00, -1.00, 83.2, 8.2)">s</text><text xml:space="preserve" font-family="Avenir-Light,Avenir" font-size="28.0" fill="#000000" transform="matrix(1.00, 0.00, -0.00, -1.00, 95.2, 8.2)">s</text><text xml:space="preserve" font-family="Avenir-Light,Avenir" font-size="28.0" fill="#000000" transform="matrix(1.00, 0.00, -0.00, -1.00, 107.1, 8.2)">i</text><text xml:space="preserve" font-family="Avenir-Light,Avenir" font-size="28.0" fill="#000000" transform="matrix(1.00, 0.00, -0.00, -1.00, 113.8, 8.2)">o</text><text xml:space="preserve" font-family="Avenir-Light,Avenir" font-size="28.0" fill="#000000" transform="matrix(1.00, 0.00, -0.00, -1.00, 130.4, 8.2)">n</text></g></svg>