<?xml version="1.0" encoding="UTF-8" standalone="no"?><svg xmlns="http://www.w3.org/2000/svg" xmlns:xlink="http://www.w3.org/1999/xlink" clip-rule="evenodd" stroke-miterlimit="10" viewBox="0 0 236 37"><desc>SVG generated by Keynote</desc><defs></defs><g transform="matrix(1.00, 0.00, -0.00, -1.00, 0.0, 37.0)"><text xml:space="preserve" font-family="Avenir-Light,Avenir" font-size="39.0" fill="#000000" transform="matrix(1.00, 0.00, -0.00, -1.00, -1.2, 6.6)">P</text><text xml:space="preserve" font-family="Avenir-Light,Avenir" font-size="26.0" fill="#000000" transform="matrix(1.00, 0.00, -0.00, -1.00, 21.2, 1.8)">B</text><text xml:space="preserve" font-family="Avenir-Light,Avenir" font-size="26.0" fill="#000000" transform="matrix(1.00, 0.00, -0.00, -1.00, 37.6, 1.8)">X</text><text xml:space="preserve" font-family="Avenir-Light,Avenir" font-size="26.0" fill="#000000" transform="matrix(1.00, 0.00, -0.00, -1.00, 53.4, 1.8)">I</text><text xml:space="preserve" font-family="Avenir-Light,Avenir" font-size="39.0" fill="#000000" transform="matrix(1.00, 0.00, -0.00, -1.00, 60.2, 6.6)"> </text><text xml:space="preserve" font-family="Avenir-Light,Avenir" font-size="39.0" fill="#000000" transform="matrix(1.00, 0.00, -0.00, -1.00, 70.3, 6.6)">=</text><text xml:space="preserve" font-family="Avenir-Light,Avenir" font-size="39.0" fill="#000000" transform="matrix(1.00, 0.00, -0.00, -1.00, 96.3, 6.6)"> </text><text xml:space="preserve" font-family="Avenir-Light,Avenir" font-size="39.0" fill="#000000" transform="matrix(1.00, 0.00, -0.00, -1.00, 106.5, 6.6)">2</text><text xml:space="preserve" font-family="Avenir-Light,Avenir" font-size="39.0" fill="#000000" transform="matrix(1.00, 0.00, -0.00, -1.00, 126.7, 6.6)"> </text><text xml:space="preserve" font-family="Avenir-Light,Avenir" font-size="39.0" fill="#000000" transform="matrix(1.00, 0.00, -0.00, -1.00, 136.9, 6.6)">2</text><text xml:space="preserve" font-family="Avenir-Light,Avenir" font-size="39.0" fill="#000000" transform="matrix(1.00, 0.00, -0.00, -1.00, 157.2, 6.6)">5</text><text xml:space="preserve" font-family="Avenir-Light,Avenir" font-size="39.0" fill="#000000" transform="matrix(1.00, 0.00, -0.00, -1.00, 177.4, 6.6)">4</text><text xml:space="preserve" font-family="Avenir-Light,Avenir" font-size="39.0" fill="#000000" transform="matrix(1.00, 0.00, -0.00, -1.00, 197.7, 6.6)"> </text><text xml:space="preserve" font-family="Avenir-Light,Avenir" font-size="39.0" fill="#000000" transform="matrix(1.00, 0.00, -0.00, -1.00, 207.9, 6.6)">N</text></g></svg>